<svg width="332" height="224" viewBox="0 0 332 224" fill="none" xmlns="http://www.w3.org/2000/svg">
<rect width="332" height="224" fill="white"/>
<path d="M166.982 155.432H176.977V152.432H166.982V155.432ZM176.977 155.432C180.161 155.432 182.697 152.813 182.697 149.636H179.697C179.697 151.205 178.455 152.432 176.977 152.432V155.432ZM182.697 149.636V147.071H179.697V149.636H182.697ZM182.697 147.071C182.697 143.895 180.161 141.274 176.977 141.274V144.274C178.454 144.274 179.697 145.501 179.697 147.071H182.697ZM176.977 141.274H166.982V144.274H176.977V141.274ZM166.982 141.274C163.796 141.274 161.261 143.896 161.261 147.071H164.261C164.261 145.501 165.503 144.274 166.982 144.274V141.274ZM161.261 147.071V149.636H164.261V147.071H161.261ZM161.261 149.636C161.261 152.812 163.796 155.432 166.982 155.432V152.432C165.503 152.432 164.261 151.206 164.261 149.636H161.261ZM229.534 110.319C228.095 109.893 228.096 109.892 228.096 109.892C228.096 109.892 228.096 109.892 228.096 109.892C228.096 109.892 228.095 109.893 228.095 109.894C228.094 109.897 228.093 109.902 228.091 109.909C228.086 109.923 228.079 109.946 228.069 109.977C228.05 110.04 228.019 110.137 227.977 110.265C227.893 110.52 227.762 110.902 227.582 111.391C227.222 112.37 226.663 113.778 225.875 115.472C224.3 118.864 221.819 123.383 218.202 127.897C210.983 136.907 199.279 145.863 181.134 145.885L181.138 148.885C200.428 148.862 212.922 139.285 220.543 129.773C224.347 125.026 226.947 120.287 228.596 116.736C229.422 114.959 230.012 113.474 230.397 112.428C230.59 111.905 230.732 111.491 230.826 111.204C230.873 111.061 230.909 110.95 230.933 110.872C230.945 110.833 230.954 110.803 230.961 110.782C230.964 110.771 230.967 110.763 230.968 110.757C230.969 110.753 230.97 110.751 230.971 110.749C230.971 110.748 230.971 110.747 230.971 110.746C230.972 110.745 230.972 110.745 229.534 110.319ZM165.787 205.608C150.274 205.608 134.187 199.867 121.997 189.86C109.823 179.866 101.596 165.677 101.596 148.749H98.5964C98.5964 166.729 107.353 181.72 120.093 192.178C132.817 202.624 149.576 208.608 165.787 208.608V205.608ZM101.596 75.4638C101.596 58.536 109.823 44.3482 121.997 34.355C134.187 24.3483 150.274 18.6077 165.787 18.6077V15.6077C149.576 15.6077 132.817 21.5915 120.093 32.0361C107.353 42.4942 98.5964 57.4845 98.5964 75.4638H101.596ZM165.787 18.6077C181.299 18.6077 197.385 24.3483 209.575 34.3549C221.749 44.3482 229.975 58.536 229.975 75.4638H232.975C232.975 57.4845 224.218 42.4942 211.479 32.0362C198.755 21.5915 181.997 15.6077 165.787 15.6077V18.6077ZM229.975 148.749C229.975 165.677 221.749 179.866 209.575 189.86C197.385 199.867 181.299 205.608 165.787 205.608V208.608C181.997 208.608 198.755 202.624 211.479 192.178C224.218 181.72 232.975 166.729 232.975 148.749H229.975ZM229.975 109.325V148.749H232.975V109.325H229.975ZM229.975 75.4638V79.2239H232.975V75.4638H229.975ZM101.596 148.749V105.399H98.5964V148.749H101.596Z" fill="#193291"/>
<path d="M93.4937 78.7083V103.469C93.4937 104.683 94.4582 105.669 95.6492 105.669H106.234C107.425 105.669 108.391 104.683 108.391 103.469V78.7083C108.391 77.4925 107.425 76.507 106.234 76.507H95.6492C94.4582 76.507 93.4937 77.4925 93.4937 78.7083" stroke="#193291" stroke-width="3"/>
<path fill-rule="evenodd" clip-rule="evenodd" d="M93.4937 78.7083V103.469C93.4937 104.683 94.4582 105.669 95.6492 105.669H106.234C107.425 105.669 108.391 104.683 108.391 103.469V78.7083C108.391 77.4925 107.425 76.507 106.234 76.507H95.6492C94.4582 76.507 93.4937 77.4925 93.4937 78.7083Z" stroke="#193291" stroke-width="3"/>
<path fill-rule="evenodd" clip-rule="evenodd" d="M223.609 81.7512V106.512C223.609 107.726 224.573 108.712 225.764 108.712H236.352C237.542 108.712 238.506 107.726 238.506 106.512V81.7512C238.506 80.5353 237.542 79.5485 236.352 79.5485H225.764C224.573 79.5485 223.609 80.5353 223.609 81.7512Z" stroke="#193291" stroke-width="3"/>
</svg>
