<svg width="332" height="224" viewBox="0 0 332 224" fill="none" xmlns="http://www.w3.org/2000/svg">
<rect width="332" height="224" fill="white"/>
<path fill-rule="evenodd" clip-rule="evenodd" d="M166.001 207.038C133.988 207.038 99.7188 183.888 99.7188 149.424V74.6509C99.7188 40.189 133.988 17.0383 166.001 17.0383C198.01 17.0383 232.281 40.189 232.281 74.6509V149.424C232.281 183.888 198.01 207.038 166.001 207.038Z" stroke="#193291" stroke-width="3"/>
<path d="M137.607 46.8958C136.779 46.8958 136.107 47.5674 136.107 48.3958C136.107 49.2242 136.779 49.8958 137.607 49.8958V46.8958ZM175.78 49.8958C176.608 49.8958 177.28 49.2242 177.28 48.3958C177.28 47.5674 176.608 46.8958 175.78 46.8958V49.8958ZM183.169 46.8958C182.34 46.8958 181.669 47.5674 181.669 48.3958C181.669 49.2242 182.34 49.8958 183.169 49.8958V46.8958ZM192.985 49.8958C193.814 49.8958 194.485 49.2242 194.485 48.3958C194.485 47.5674 193.814 46.8958 192.985 46.8958V49.8958ZM117.297 71.0846C116.468 71.0846 115.797 71.7562 115.797 72.5846C115.797 73.413 116.468 74.0846 117.297 74.0846V71.0846ZM215.369 74.0846C216.197 74.0846 216.869 73.413 216.869 72.5846C216.869 71.7562 216.197 71.0846 215.369 71.0846V74.0846ZM117.297 89.238C116.468 89.238 115.797 89.9095 115.797 90.738C115.797 91.5664 116.468 92.238 117.297 92.238V89.238ZM154.874 92.238C155.703 92.238 156.374 91.5664 156.374 90.738C156.374 89.9095 155.703 89.238 154.874 89.238V92.238ZM166 89.238C165.171 89.238 164.5 89.9095 164.5 90.738C164.5 91.5664 165.171 92.238 166 92.238V89.238ZM215.369 92.238C216.197 92.238 216.869 91.5664 216.869 90.738C216.869 89.9095 216.197 89.238 215.369 89.238V92.238ZM117.297 106.279C116.468 106.279 115.797 106.95 115.797 107.779C115.797 108.607 116.468 109.279 117.297 109.279V106.279ZM215.369 109.279C216.197 109.279 216.869 108.607 216.869 107.779C216.869 106.95 216.197 106.279 215.369 106.279V109.279ZM188.234 122.513C187.406 122.513 186.734 123.184 186.734 124.013C186.734 124.841 187.406 125.513 188.234 125.513V122.513ZM215.369 125.513C216.197 125.513 216.869 124.841 216.869 124.013C216.869 123.184 216.197 122.513 215.369 122.513V125.513ZM117.297 122.513C116.468 122.513 115.797 123.184 115.797 124.013C115.797 124.841 116.468 125.513 117.297 125.513V122.513ZM176.694 125.513C177.522 125.513 178.194 124.841 178.194 124.013C178.194 123.184 177.522 122.513 176.694 122.513V125.513ZM152.394 139.859C151.566 139.859 150.894 140.531 150.894 141.359C150.894 142.188 151.566 142.859 152.394 142.859V139.859ZM169.835 142.859C170.663 142.859 171.335 142.188 171.335 141.359C171.335 140.531 170.663 139.859 169.835 139.859V142.859ZM117.297 139.859C116.468 139.859 115.797 140.531 115.797 141.359C115.797 142.188 116.468 142.859 117.297 142.859V139.859ZM142.58 142.859C143.408 142.859 144.08 142.188 144.08 141.359C144.08 140.531 143.408 139.859 142.58 139.859V142.859ZM117.297 154.981C116.468 154.981 115.797 155.652 115.797 156.481C115.797 157.309 116.468 157.981 117.297 157.981V154.981ZM160.145 157.981C160.973 157.981 161.645 157.309 161.645 156.481C161.645 155.652 160.973 154.981 160.145 154.981V157.981ZM124.008 172.327C123.18 172.327 122.508 172.999 122.508 173.827C122.508 174.656 123.18 175.327 124.008 175.327V172.327ZM153.434 175.327C154.262 175.327 154.934 174.656 154.934 173.827C154.934 172.999 154.262 172.327 153.434 172.327V175.327ZM137.607 49.8958H175.78V46.8958H137.607V49.8958ZM183.169 49.8958H192.985V46.8958H183.169V49.8958ZM117.297 74.0846H215.369V71.0846H117.297V74.0846ZM117.297 92.238H154.874V89.238H117.297V92.238ZM166 92.238H215.369V89.238H166V92.238ZM117.297 109.279H215.369V106.279H117.297V109.279ZM188.234 125.513H215.369V122.513H188.234V125.513ZM117.297 125.513H176.694V122.513H117.297V125.513ZM152.394 142.859H169.835V139.859H152.394V142.859ZM117.297 142.859H142.58V139.859H117.297V142.859ZM117.297 157.981H160.145V154.981H117.297V157.981ZM124.008 175.327H153.434V172.327H124.008V175.327Z" fill="#193291"/>
<path fill-rule="evenodd" clip-rule="evenodd" d="M211.768 160.053C211.768 169.739 203.916 177.591 194.23 177.591C184.546 177.591 176.694 169.739 176.694 160.053C176.694 150.369 184.546 142.517 194.23 142.517C203.916 142.517 211.768 150.369 211.768 160.053Z" stroke="#193291" stroke-width="3"/>
<path d="M203.019 155.2L194.066 164.586C193.665 165.007 192.997 165.015 192.586 164.605L187.355 159.373" stroke="#193291" stroke-width="3" stroke-linecap="round"/>
</svg>
