<svg width="332" height="224" viewBox="0 0 332 224" fill="none" xmlns="http://www.w3.org/2000/svg">
<rect width="332" height="224" fill="white"/>
<path fill-rule="evenodd" clip-rule="evenodd" d="M166.627 207.041C134.614 207.041 100.345 183.89 100.345 149.427V74.6535C100.345 40.1928 134.614 17.0411 166.627 17.0411C198.636 17.0411 232.906 40.1928 232.906 74.6535V149.427C232.906 183.89 198.636 207.041 166.627 207.041Z" stroke="#193291" stroke-width="3"/>
<path d="M195.616 171.276C187.219 176.807 176.998 179.918 167.081 179.918C144.208 179.918 119.723 163.376 119.723 138.753V85.3274C119.723 60.7061 144.208 44.1642 167.081 44.1642C189.952 44.1642 214.437 60.7061 214.437 85.3274V133.864" stroke="#193291" stroke-width="3" stroke-linecap="round"/>
<path d="M197.216 112.041C197.216 127.541 184.65 140.107 169.15 140.107V143.107C186.307 143.107 200.216 129.198 200.216 112.041H197.216ZM169.15 140.107C153.649 140.107 141.083 127.541 141.083 112.041H138.083C138.083 129.198 151.993 143.107 169.15 143.107V140.107ZM141.083 112.041C141.083 96.5405 153.649 83.9744 169.15 83.9744V80.9744C151.993 80.9744 138.083 94.8837 138.083 112.041H141.083ZM169.15 83.9744C184.65 83.9744 197.216 96.5405 197.216 112.041H200.216C200.216 94.8837 186.307 80.9744 169.15 80.9744V83.9744ZM212.937 133.748C212.937 137.26 210.089 140.107 206.576 140.107V143.107C211.745 143.107 215.937 138.918 215.937 133.748H212.937ZM206.576 140.107C203.063 140.107 200.216 137.26 200.216 133.748H197.216C197.216 138.917 201.406 143.107 206.576 143.107V140.107Z" fill="#193291"/>
<path d="M198.716 84.576V134.172" stroke="#193291" stroke-width="3" stroke-linecap="round"/>
</svg>
