<svg width="332" height="224" viewBox="0 0 332 224" fill="none" xmlns="http://www.w3.org/2000/svg">
<rect width="332" height="224" fill="white"/>
<path d="M147.952 98.2877C147.899 99.1144 148.525 99.8281 149.352 99.8818C150.179 99.9355 150.892 99.3088 150.946 98.4821L147.952 98.2877ZM173.991 114.194L174.989 115.314L174.99 115.314L173.991 114.194ZM166.203 126.771C166.203 127.6 166.874 128.271 167.703 128.271C168.531 128.271 169.203 127.6 169.203 126.771H166.203ZM169.216 136.009C169.216 135.181 168.544 134.509 167.716 134.509C166.887 134.509 166.216 135.181 166.216 136.009H169.216ZM166.216 140.727C166.216 141.556 166.887 142.227 167.716 142.227C168.544 142.227 169.216 141.556 169.216 140.727H166.216ZM150.946 98.4821C151.064 96.6652 151.792 93.035 154.078 89.9012C156.306 86.8463 160.076 84.163 166.568 84.163V81.163C159.084 81.163 154.426 84.3319 151.654 88.1335C148.939 91.8564 148.095 96.0872 147.952 98.2877L150.946 98.4821ZM166.568 84.163C172.015 84.163 175.582 86.1362 177.809 88.737C180.072 91.3814 181.051 94.7953 181.051 97.7732H184.051C184.051 94.2004 182.89 90.0591 180.088 86.7861C177.248 83.4695 172.824 81.163 166.568 81.163V84.163ZM181.051 97.7732C181.051 100.872 180.558 103.285 179.364 105.587C178.153 107.92 176.165 110.245 172.993 113.075L174.99 115.314C178.281 112.378 180.573 109.768 182.026 106.969C183.495 104.139 184.051 101.225 184.051 97.7732H181.051ZM172.994 113.074C170.523 115.276 168.802 117.274 167.712 119.392C166.607 121.539 166.203 123.708 166.203 126.16H169.203C169.203 124.07 169.541 122.395 170.379 120.765C171.233 119.106 172.656 117.393 174.989 115.314L172.994 113.074ZM166.203 126.16V126.771H169.203V126.16H166.203ZM166.216 136.009V140.727H169.216V136.009H166.216Z" fill="#193291"/>
<path fill-rule="evenodd" clip-rule="evenodd" d="M166.002 16.6951C133.99 16.6951 99.7186 39.8456 99.7186 74.3071V149.082C99.7186 160.048 103.193 169.866 108.957 178.161L99.8163 204.928C99.4577 205.815 100.147 206.695 101 206.695C101.163 206.695 101.332 206.663 101.501 206.592L130.932 197.535C141.652 203.433 153.987 206.695 166.002 206.695C198.011 206.695 232.281 183.543 232.281 149.082V74.3071C232.281 39.8456 198.011 16.6951 166.002 16.6951Z" stroke="#193291" stroke-width="3"/>
</svg>
