<svg width="332" height="224" viewBox="0 0 332 224" fill="none" xmlns="http://www.w3.org/2000/svg">
<rect width="332" height="224" fill="white"/>
<path d="M232.051 69.9492C232.204 71.5389 232.281 73.1548 232.281 74.797V149.571C232.281 184.033 198.012 207.185 166.001 207.185C133.989 207.185 99.719 184.033 99.719 149.571V74.797C99.719 40.335 133.989 17.1846 166.001 17.1846C196.486 17.1846 229.02 38.1813 232.051 69.9492" stroke="#193291" stroke-width="3"/>
<path d="M168.104 120.602L168.968 121.828L168.982 121.818L168.996 121.808L168.104 120.602ZM163.896 120.602L163.004 121.808L163.018 121.818L163.033 121.828L163.896 120.602ZM150.509 111.02L101.28 161.411L103.426 163.507L152.655 113.117L150.509 111.02ZM231.389 71.9303L167.212 119.396L168.996 121.808L233.173 74.3423L231.389 71.9303ZM167.24 119.376C166.515 119.887 165.486 119.887 164.759 119.375L163.033 121.828C164.795 123.069 167.206 123.07 168.968 121.828L167.24 119.376ZM164.788 119.396L100.611 71.9303L98.8268 74.3423L163.004 121.808L164.788 119.396ZM179.864 113.117L229.092 163.507L231.238 161.411L182.01 111.02L179.864 113.117Z" fill="#193291"/>
</svg>
