<svg width="332" height="224" viewBox="0 0 332 224" fill="none" xmlns="http://www.w3.org/2000/svg">
<rect width="332" height="224" fill="white"/>
<path fill-rule="evenodd" clip-rule="evenodd" d="M174.966 128.189L204.389 95.7687C204.563 95.5759 204.334 95.2875 204.107 95.4146L175.059 111.768C174.966 111.82 174.85 111.802 174.778 111.723L159.292 94.9006C159.202 94.8036 159.05 94.8023 158.959 94.8967L127.616 127.321C127.435 127.509 127.658 127.805 127.889 127.682L158.927 110.999C159.02 110.95 159.136 110.969 159.205 111.048L174.626 128.188C174.716 128.289 174.875 128.289 174.966 128.189Z" stroke="#193291" stroke-width="3"/>
<path fill-rule="evenodd" clip-rule="evenodd" d="M166.001 16.5455C133.99 16.5455 99.719 39.6966 99.719 74.1577V148.932C99.719 159.899 103.193 169.718 108.956 178.012L99.8161 204.778C99.4568 205.666 100.147 206.546 100.999 206.546C101.163 206.546 101.332 206.513 101.501 206.443L130.932 197.386C141.652 203.284 153.986 206.546 166.001 206.546C198.012 206.546 232.281 183.394 232.281 148.932V74.1577C232.281 39.6966 198.012 16.5455 166.001 16.5455Z" stroke="#193291" stroke-width="3"/>
</svg>
