<svg width="332" height="224" viewBox="0 0 332 224" fill="none" xmlns="http://www.w3.org/2000/svg">
<rect width="332" height="224" fill="white"/>
<path fill-rule="evenodd" clip-rule="evenodd" d="M154.934 107.152C154.934 107.152 161.46 101.238 157.789 95.3245C154.117 89.41 144.941 84.1085 141.066 94.7128C137.191 105.317 143.309 119.389 162.275 130.197C181.241 141.005 196.128 129.993 191.03 123.875C185.932 117.757 179.405 113.679 175.939 117.961L172.472 122.243C172.472 122.243 159.42 121.427 154.934 107.152Z" stroke="#193291" stroke-width="3" stroke-linecap="round" stroke-linejoin="round"/>
<path fill-rule="evenodd" clip-rule="evenodd" d="M166.002 16.695C133.99 16.695 99.7186 39.8455 99.7186 74.307V149.082C99.7186 160.048 103.193 169.866 108.957 178.161L99.8163 204.928C99.4577 205.815 100.147 206.695 101 206.695C101.163 206.695 101.332 206.663 101.501 206.592L130.932 197.535C141.652 203.433 153.987 206.695 166.002 206.695C198.011 206.695 232.281 183.545 232.281 149.082V74.307C232.281 39.8455 198.011 16.695 166.002 16.695Z" stroke="#193291" stroke-width="3"/>
</svg>
