<svg width="31" height="32" viewBox="0 0 31 32" xmlns="http://www.w3.org/2000/svg">
    <g fill="none" fill-rule="evenodd">
        <path d="M0 .5h31v31H0z"/>
        <path d="M27.826 8.893c.59 2.302.59 7.107.59 7.107s0 4.805-.59 7.107c-.328 1.272-1.287 2.273-2.503 2.611-2.207.615-9.823.615-9.823.615s-7.612 0-9.823-.614c-1.22-.344-2.18-1.344-2.503-2.612-.59-2.302-.59-7.107-.59-7.107s0-4.805.59-7.107C3.502 7.621 4.46 6.62 5.677 6.281c2.211-.614 9.823-.614 9.823-.614s7.616 0 9.823.615c1.22.343 2.18 1.343 2.503 2.611zm-14.91 11.628L20.667 16l-7.75-4.52v9.04z" fill="#00003C" fill-rule="nonzero"/>
    </g>
</svg>
