<svg width="34" height="34" xmlns="http://www.w3.org/2000/svg">
    <g fill="none" fill-rule="evenodd">
        <path d="M0 0h34v34H0z"/>
        <path d="M17 12.75a4.25 4.25 0 1 0 0 8.5 4.25 4.25 0 0 0 0-8.5zm0-2.833a7.083 7.083 0 1 1 0 14.166 7.083 7.083 0 0 1 0-14.166zm9.208-.354a1.77 1.77 0 1 1-3.541 0 1.77 1.77 0 0 1 3.541 0zM17 5.667c-3.505 0-4.077.01-5.708.082-1.11.052-1.856.201-2.547.47a4.09 4.09 0 0 0-1.53.996 4.094 4.094 0 0 0-.997 1.53c-.27.694-.418 1.438-.47 2.547-.073 1.564-.081 2.111-.081 5.708 0 3.505.01 4.077.082 5.708.052 1.109.201 1.856.469 2.546.24.616.524 1.06.994 1.53.478.476.921.76 1.53.995.7.271 1.445.421 2.55.472 1.564.074 2.111.082 5.708.082 3.505 0 4.077-.01 5.708-.082 1.108-.052 1.854-.201 2.546-.469a4.138 4.138 0 0 0 1.53-.994c.477-.478.762-.921.997-1.53.269-.699.42-1.445.47-2.55.074-1.564.082-2.111.082-5.708 0-3.505-.01-4.077-.082-5.708-.052-1.108-.201-1.856-.47-2.547a4.124 4.124 0 0 0-.996-1.53 4.086 4.086 0 0 0-1.53-.997c-.694-.27-1.44-.418-2.547-.47-1.564-.073-2.111-.081-5.708-.081zm0-2.834c3.85 0 4.33.014 5.84.085 1.508.071 2.535.308 3.44.66.934.359 1.722.846 2.51 1.632a6.953 6.953 0 0 1 1.633 2.51c.35.903.588 1.932.659 3.44.066 1.51.085 1.99.085 5.84 0 3.85-.015 4.33-.085 5.84-.071 1.508-.31 2.535-.66 3.44a6.918 6.918 0 0 1-1.633 2.51 6.963 6.963 0 0 1-2.51 1.633c-.902.35-1.93.588-3.44.659-1.51.066-1.99.085-5.839.085-3.85 0-4.33-.015-5.84-.085-1.508-.071-2.535-.31-3.44-.66a6.928 6.928 0 0 1-2.51-1.633 6.947 6.947 0 0 1-1.633-2.51c-.351-.902-.588-1.93-.659-3.44-.066-1.51-.085-1.99-.085-5.839 0-3.85.014-4.33.085-5.84.071-1.51.308-2.535.66-3.44A6.913 6.913 0 0 1 5.21 5.21a6.937 6.937 0 0 1 2.51-1.633c.905-.351 1.93-.588 3.44-.659 1.51-.066 1.99-.085 5.84-.085z" fill="#00003C" fill-rule="nonzero"/>
    </g>
</svg>
