<svg width="31" height="32" viewBox="0 0 31 32" xmlns="http://www.w3.org/2000/svg">
    <g fill="none" fill-rule="evenodd">
        <path d="M0 .5h31v31H0z"/>
        <path d="M15.5 3.083C8.366 3.083 2.583 8.866 2.583 16c0 6.447 4.724 11.79 10.9 12.76v-9.027h-3.281V16h3.28v-2.846c0-3.236 1.928-5.024 4.879-5.024 1.413 0 2.89.252 2.89.252v3.177h-1.627c-1.605 0-2.105.996-2.105 2.018V16H21.1l-.573 3.733h-3.01v9.027c6.175-.968 10.899-6.315 10.899-12.76 0-7.134-5.783-12.917-12.917-12.917z" fill="#00003C" fill-rule="nonzero"/>
    </g>
</svg>
